<?xml version="1.0" standalone="no"?>
<!DOCTYPE svg PUBLIC "-//W3C//DTD SVG 20010904//EN"
 "http://www.w3.org/TR/2001/REC-SVG-20010904/DTD/svg10.dtd">
<svg version="1.0" xmlns="http://www.w3.org/2000/svg"
 viewBox="0 0 178.000000 172.000000"
 preserveAspectRatio="xMidYMid meet">

<g transform="translate(0.000000,172.000000) scale(0.100000,-0.100000)"
fill="#45423E" stroke="none">
<path d="M511 1450 c-211 -116 -388 -210 -392 -210 -25 0 -29 -57 -29 -393 0
-323 2 -357 17 -375 20 -22 769 -433 793 -434 16 -1 764 404 793 430 16 14 17
43 15 386 l-3 370 -400 218 c-220 120 -402 218 -405 218 -3 0 -178 -95 -389
-210z m729 -82 c173 -94 316 -172 318 -173 2 -2 -32 -22 -75 -45 -93 -51 -120
-66 -373 -205 -107 -59 -200 -108 -206 -108 -13 0 -642 341 -649 353 -8 12
637 361 655 354 8 -3 157 -82 330 -176z m-660 -471 l265 -145 3 -292 2 -292
-108 59 c-59 32 -208 112 -330 178 l-221 120 -1 292 0 293 63 -35 c34 -19 181
-99 327 -178z m1031 -81 c1 -157 0 -288 -2 -290 -7 -6 -652 -356 -656 -356 -2
0 -2 131 -1 291 l3 290 325 178 c179 98 326 177 327 176 2 -1 4 -131 4 -289z"/>
</g>
</svg>
