<?xml version="1.0" standalone="no"?>
<!DOCTYPE svg PUBLIC "-//W3C//DTD SVG 20010904//EN"
 "http://www.w3.org/TR/2001/REC-SVG-20010904/DTD/svg10.dtd">
<svg version="1.0" xmlns="http://www.w3.org/2000/svg"
 viewBox="0 0 170.000000 167.000000"
 preserveAspectRatio="xMidYMid meet">

<g transform="translate(0.000000,167.000000) scale(0.100000,-0.100000)"
fill="#45423E" stroke="none">
<path d="M60 1633 c-20 -8 -30 -24 -30 -50 0 -32 15 -37 120 -43 l95 -5 62
-555 c34 -305 62 -568 62 -585 0 -25 -7 -35 -43 -56 -96 -59 -116 -200 -38
-282 40 -43 75 -57 139 -57 132 1 209 104 180 243 l-8 37 321 0 322 0 -9 -33
c-32 -129 36 -236 158 -245 73 -5 99 1 139 34 96 82 91 229 -12 300 l-41 29
-503 3 -503 3 -6 52 c-3 28 -7 70 -8 92 l-2 40 567 3 c528 2 568 3 577 20 5 9
24 149 41 311 l33 294 -21 17 c-13 11 -48 20 -94 24 -112 10 -1192 127 -1194
129 -1 1 -9 60 -17 131 -12 102 -19 133 -33 143 -18 13 -222 18 -254 6z m805
-433 c253 -27 512 -55 575 -61 63 -7 118 -14 122 -18 4 -3 -4 -103 -17 -221
-14 -118 -25 -223 -25 -232 0 -17 -32 -18 -539 -18 l-539 0 -6 38 c-3 20 -17
143 -31 272 -14 129 -27 247 -30 263 -3 21 -1 27 13 27 9 0 224 -23 477 -50z
m-371 -961 c35 -41 34 -83 -3 -120 -71 -71 -185 4 -147 96 17 40 40 54 88 55
28 0 42 -7 62 -31z m981 6 c25 -24 33 -73 19 -110 -8 -21 -56 -45 -89 -45 -35
0 -85 50 -85 85 0 31 24 81 42 88 36 15 90 6 113 -18z"/>
</g>
</svg>
