<?xml version="1.0" standalone="no"?>
<!DOCTYPE svg PUBLIC "-//W3C//DTD SVG 20010904//EN"
 "http://www.w3.org/TR/2001/REC-SVG-20010904/DTD/svg10.dtd">
<svg version="1.0" xmlns="http://www.w3.org/2000/svg"
 viewBox="0 0 215.000000 178.000000"
 preserveAspectRatio="xMidYMid meet">

<g transform="translate(0.000000,178.000000) scale(0.100000,-0.100000)"
fill="#45423E" stroke="none">
<path d="M1040 1710 c-13 -8 -15 -85 -18 -575 -1 -311 -6 -565 -10 -565 -4 0
-68 61 -143 136 -121 121 -140 136 -162 130 -29 -7 -43 -37 -28 -63 5 -10 93
-101 194 -202 164 -163 188 -183 208 -176 13 4 107 92 208 195 164 168 183
191 177 214 -4 17 -16 28 -32 32 -23 6 -41 -8 -163 -130 -75 -75 -140 -136
-144 -136 -4 0 -7 253 -7 563 0 425 -3 566 -12 575 -14 14 -47 15 -68 2z"/>
<path d="M225 1009 c-85 -20 -148 -88 -165 -178 -13 -72 -13 -546 1 -610 15
-69 56 -123 120 -155 l53 -26 830 0 c508 0 845 4 866 10 47 13 106 63 133 113
21 41 22 50 22 367 0 298 -2 328 -19 360 -38 72 -93 111 -172 124 -48 8 -74
-9 -74 -49 0 -27 18 -39 72 -49 24 -4 47 -18 67 -42 l31 -35 0 -305 c0 -335
-1 -343 -61 -378 -25 -15 -105 -16 -859 -16 -486 0 -838 4 -848 9 -9 5 -28 21
-42 36 l-25 27 -3 303 c-2 263 -1 309 13 335 19 36 69 70 106 70 14 0 30 5 37
12 19 19 15 66 -7 78 -22 11 -22 11 -76 -1z"/>
</g>
</svg>
