<?xml version="1.0" standalone="no"?>
<!DOCTYPE svg PUBLIC "-//W3C//DTD SVG 20010904//EN"
 "http://www.w3.org/TR/2001/REC-SVG-20010904/DTD/svg10.dtd">
<svg version="1.0" xmlns="http://www.w3.org/2000/svg"
 viewBox="0 0 141.000000 168.000000"
 preserveAspectRatio="xMidYMid meet">

<g transform="translate(0.000000,168.000000) scale(0.100000,-0.100000)"
fill="#45423E" stroke="none">
<path d="M54 1616 c-18 -14 -19 -32 -19 -593 l0 -578 225 -223 225 -222 440 2
439 3 13 25 c10 20 12 188 10 798 -2 753 -3 774 -21 788 -29 21 -1283 21
-1312 0z m1236 -806 l0 -720 -367 2 -368 3 -5 197 c-3 115 -9 201 -15 207 -6
6 -89 12 -205 13 l-195 3 -3 508 -2 507 580 0 580 0 0 -720z m-842 -520 l3
-125 -121 120 c-66 66 -120 123 -120 128 0 4 53 6 118 5 l117 -3 3 -125z"/>
<path d="M326 1328 c-20 -29 -20 -34 4 -58 19 -19 33 -20 243 -20 204 0 225 2
240 18 22 24 21 45 -1 65 -16 15 -48 17 -245 17 -222 0 -226 0 -241 -22z"/>
<path d="M1017 1332 c-22 -25 -21 -75 1 -95 41 -37 112 -6 112 48 0 55 -77 87
-113 47z"/>
<path d="M1017 1062 c-37 -41 -6 -112 48 -112 14 0 34 9 45 20 11 11 20 31 20
45 0 55 -77 87 -113 47z"/>
<path d="M326 1048 c-20 -29 -20 -34 4 -58 19 -19 33 -20 238 -20 181 0 221 3
240 16 27 18 28 45 4 67 -16 15 -48 17 -245 17 -222 0 -226 0 -241 -22z"/>
<path d="M1017 792 c-36 -40 -6 -112 46 -112 28 0 67 38 67 66 0 11 -7 30 -16
42 -19 28 -74 30 -97 4z"/>
<path d="M327 769 c-15 -20 -12 -54 4 -64 4 -3 113 -6 241 -6 211 0 233 1 245
17 17 23 16 39 -3 58 -13 14 -50 16 -244 16 -220 0 -229 -1 -243 -21z"/>
<path d="M739 349 c-8 -16 -8 -28 0 -45 11 -24 12 -24 175 -24 136 0 167 3
180 16 19 18 20 28 6 55 -10 18 -23 19 -180 19 -162 0 -170 -1 -181 -21z"/>
</g>
</svg>
