<?xml version="1.0" standalone="no"?>
<!DOCTYPE svg PUBLIC "-//W3C//DTD SVG 20010904//EN"
 "http://www.w3.org/TR/2001/REC-SVG-20010904/DTD/svg10.dtd">
<svg version="1.0" xmlns="http://www.w3.org/2000/svg"
 viewBox="0 0 201.000000 175.000000"
 preserveAspectRatio="xMidYMid meet">

<g transform="translate(0.000000,175.000000) scale(0.100000,-0.100000)"
fill="#45423E" stroke="none">
<path d="M957 1677 c-38 -39 -291 -328 -306 -349 -30 -44 28 -91 70 -55 9 6
60 63 115 126 l99 114 6 -184 c4 -101 7 -343 8 -537 1 -222 5 -361 11 -373 12
-22 52 -25 69 -5 9 11 12 151 10 553 -1 296 1 540 4 543 3 3 56 -52 118 -122
112 -128 137 -146 167 -116 27 27 8 57 -138 223 -153 173 -185 205 -202 205
-5 0 -19 -10 -31 -23z"/>
<path d="M207 1010 c-54 -10 -117 -58 -144 -110 l-24 -45 3 -326 3 -327 30
-43 c17 -23 50 -53 74 -66 l44 -23 799 0 c775 0 800 1 837 20 48 24 98 83 111
130 14 49 13 595 -1 645 -25 92 -166 178 -226 139 -13 -8 -23 -23 -23 -34 0
-23 36 -50 66 -50 30 0 74 -37 90 -76 17 -41 20 -537 4 -596 -6 -20 -24 -48
-41 -62 l-31 -26 -779 0 c-861 0 -821 -3 -853 64 -14 29 -16 76 -16 315 0 350
2 357 115 386 34 8 41 14 43 40 3 26 -19 58 -37 54 -3 -1 -23 -5 -44 -9z"/>
</g>
</svg>
