<?xml version="1.0" standalone="no"?>
<!DOCTYPE svg PUBLIC "-//W3C//DTD SVG 20010904//EN"
 "http://www.w3.org/TR/2001/REC-SVG-20010904/DTD/svg10.dtd">
<svg version="1.0" xmlns="http://www.w3.org/2000/svg"
 viewBox="0 0 191.000000 173.000000"
 preserveAspectRatio="xMidYMid meet">

<g transform="translate(0.000000,173.000000) scale(0.100000,-0.100000)"
fill="#45423E" stroke="none">
<path d="M851 1663 c-52 -19 -118 -81 -146 -138 -15 -30 -20 -61 -20 -120 0
-88 19 -139 72 -191 l28 -27 -61 -61 c-33 -34 -67 -78 -74 -99 -15 -40 -30
-46 -51 -21 -32 39 -92 59 -179 59 -74 0 -91 -3 -130 -27 -60 -35 -94 -73
-121 -133 -44 -98 -22 -224 54 -304 25 -26 29 -35 17 -39 -29 -9 -96 -88 -122
-142 -34 -74 -48 -144 -48 -248 0 -93 8 -112 45 -112 34 0 45 20 45 80 1 245
89 370 261 370 87 0 126 -17 179 -77 49 -56 69 -116 76 -228 7 -123 10 -134
39 -141 46 -11 55 9 55 115 0 162 -35 259 -126 347 l-53 52 30 28 c48 46 70
104 79 209 10 119 34 185 85 240 92 98 264 95 350 -7 45 -53 65 -114 76 -226
10 -113 29 -163 83 -221 24 -26 28 -35 16 -39 -27 -9 -96 -88 -119 -136 -36
-74 -51 -144 -51 -246 0 -101 7 -120 45 -120 34 0 45 20 45 85 0 145 37 254
105 314 50 43 74 51 156 51 84 0 131 -21 181 -80 46 -53 67 -123 75 -240 7
-108 14 -130 46 -130 40 0 47 18 47 120 0 161 -53 296 -145 366 l-36 27 29 31
c53 56 76 113 75 191 0 82 -18 128 -70 186 -91 100 -242 119 -354 43 -28 -19
-52 -34 -54 -34 -2 0 -17 24 -33 54 -32 56 -41 66 -92 109 l-32 27 28 33 c120
142 91 344 -63 434 -58 34 -173 42 -242 16z m152 -84 c116 -32 170 -173 104
-270 -40 -59 -70 -74 -151 -74 -63 0 -77 3 -108 27 -114 87 -87 265 49 313 47
17 58 18 106 4z m-494 -627 c48 -22 91 -94 91 -151 0 -98 -65 -171 -157 -179
-69 -6 -95 2 -139 40 -83 73 -86 187 -6 261 59 56 132 66 211 29z m1078 -8
c109 -63 109 -235 -1 -299 -156 -91 -334 68 -256 229 47 97 157 127 257 70z"/>
</g>
</svg>
